<?xml version="1.0" encoding="UTF-8" standalone="no"?>
<!-- Created with Inkscape (http://www.inkscape.org/) -->

<svg
   xmlns:dc="http://purl.org/dc/elements/1.1/"
   xmlns:cc="http://creativecommons.org/ns#"
   xmlns:rdf="http://www.w3.org/1999/02/22-rdf-syntax-ns#"
   xmlns:svg="http://www.w3.org/2000/svg"
   xmlns="http://www.w3.org/2000/svg"
   xmlns:sodipodi="http://sodipodi.sourceforge.net/DTD/sodipodi-0.dtd"
   xmlns:inkscape="http://www.inkscape.org/namespaces/inkscape"
   width="6.9361062mm"
   height="6.6839194mm"
   viewBox="0 0 6.9361062 6.6839194"
   version="1.1"
   id="svg4288"
   inkscape:version="0.92.3 (2405546, 2018-03-11)"
   sodipodi:docname="cadeado.svg">
  <defs
     id="defs4282">
    <clipPath
       clipPathUnits="userSpaceOnUse"
       id="clipPath498">
      <path
         d="M 0,0 H 22.709 V 22.709 H 0 Z"
         id="path496"
         inkscape:connector-curvature="0" />
    </clipPath>
  </defs>
  <sodipodi:namedview
     id="base"
     pagecolor="#ffffff"
     bordercolor="#666666"
     borderopacity="1.0"
     inkscape:pageopacity="0.0"
     inkscape:pageshadow="2"
     inkscape:zoom="1.979899"
     inkscape:cx="36.577253"
     inkscape:cy="-113.609"
     inkscape:document-units="mm"
     inkscape:current-layer="layer1"
     showgrid="false"
     inkscape:window-width="1920"
     inkscape:window-height="1072"
     inkscape:window-x="1680"
     inkscape:window-y="53"
     inkscape:window-maximized="1"
     fit-margin-top="0"
     fit-margin-left="0"
     fit-margin-right="0"
     fit-margin-bottom="0" />
  <metadata
     id="metadata4285">
    <rdf:RDF>
      <cc:Work
         rdf:about="">
        <dc:format>image/svg+xml</dc:format>
        <dc:type
           rdf:resource="http://purl.org/dc/dcmitype/StillImage" />
        <dc:title></dc:title>
      </cc:Work>
    </rdf:RDF>
  </metadata>
  <g
     inkscape:label="Layer 1"
     inkscape:groupmode="layer"
     id="layer1"
     transform="translate(-135.62718,46.520531)">
    <g
       id="g490"
       transform="matrix(0.11048647,0,0,-0.11048647,135.12274,-39.195933)">
      <g
         id="g492"
         transform="scale(3.1706)">
        <g
           id="g494"
           clip-path="url(#clipPath498)">
          <g
             id="g500">
            <g
               id="g502">
              <g
                 id="g504" />
            </g>
            <path
               d="m 18.72,2.3089 c 0,-0.18 -0.06,-0.24 -0.18,-0.36 -0.12,-0.12 -0.24,-0.12 -0.42,-0.12 H 4.62 c -0.18,0 -0.3,0.06 -0.42,0.12 -0.12,0.12 -0.24,0.24 -0.24,0.36 v 9.9601 c 0,0.06 0.06,0.18 0.12,0.3 0.12,0.12 0.18,0.18 0.3,0.18 h 2.04 v 3.96 c 0,0.48 0.06,1.02 0.24,1.5 0.66,1.8 2.22,2.7 4.68,2.7 2.46,0 4.02,-0.9 4.68,-2.7 0.18,-0.48 0.3,-1.02 0.3,-1.5 v -3.96 h 2.04 c 0.12,0 0.24,-0.18 0.36,-0.42 z M 15.48,12.749 v 4.14 c 0,0.36 -0.12,0.78 -0.36,1.2 -0.18,0.48 -0.48,0.84 -0.72,1.02 -0.78,0.66 -1.8,1.02 -3.06,1.02 -2.04,0 -3.3,-0.72 -3.84,-2.16 -0.18,-0.48 -0.24,-0.78 -0.24,-1.08 v -4.14 h 0.36 v 3.66 c 0,0.72 0.18,1.38 0.6,1.98 0.36,0.6 0.9,1.02 1.62,1.26 0.3,0.12 0.54,0.18 0.72,0.18 l 0.06,-0.06 c -0.12,0 -0.24,-0.06 -0.42,-0.12 -0.54,-0.18 -1.02,-0.54 -1.5,-1.08 -0.48,-0.6 -0.72,-1.14 -0.72,-1.68 0,-0.06 0,-0.12 0,-0.18 -0.06,-0.06 -0.06,-0.12 -0.06,-0.18 v -3.78 h 0.66 v 4.14 c 0,0.36 0.12,0.72 0.42,1.08 0.3,0.36 0.66,0.6 0.96,0.72 0.54,0.12 0.96,0.24 1.38,0.24 1.32,0 2.16,-0.48 2.58,-1.32 0.18,-0.3 0.24,-0.54 0.24,-0.72 v -4.14 h 0.36 v 3.9 c 0,0.48 -0.18,0.96 -0.54,1.44 -0.36,0.48 -0.78,0.78 -1.32,0.9 0.66,0 1.2,-0.3 1.62,-0.84 0.36,-0.54 0.6,-1.08 0.6,-1.74 v -3.66 z m -2.16,0 v 4.02 c 0,0.3 -0.12,0.54 -0.36,0.78 -0.24,0.24 -0.48,0.42 -0.78,0.48 -0.36,0 -0.66,0.06 -0.84,0.06 -0.18,0 -0.36,0 -0.48,0 -0.36,-0.06 -0.66,-0.18 -1.02,-0.42 -0.3,-0.24 -0.48,-0.54 -0.48,-0.9 v -4.02 z M 17.88,2.6689 V 11.909 H 17.4 V 2.6689 Z m -0.9,0 V 11.909 H 4.8 V 2.6689 Z m -4.32,6.18 c 0,-0.48 -0.24,-0.84 -0.66,-1.08 l 0.6,-3.48 h -2.52 l 0.6,3.48 c -0.36,0.18 -0.6,0.54 -0.6,1.08 0,0.36 0.12,0.66 0.36,0.9 0.24,0.24 0.54,0.4201 0.9,0.4201 0.36,0 0.66,-0.1801 0.9,-0.4201 0.3,-0.24 0.42,-0.54 0.42,-0.9 z"
               style="fill:#000000;fill-opacity:1;fill-rule:nonzero;stroke:none"
               id="path506"
               inkscape:connector-curvature="0" />
            <path
               d="m 21.24,16.949 c 0,-0.54 -0.54,-1.38 -1.62,-2.46 -0.78,-0.84 -1.56,-1.56 -2.28,-2.1 l -1.98,-1.56 c -0.48,-0.36 -0.78,-0.54 -0.96,-0.54 -0.12,0 -0.24,0.06 -0.42,0.18 L 12.36,9.2089 c -1.98,-1.56 -3.24,-2.34 -3.72,-2.34 -0.18,0 -0.36,0.12 -0.66,0.42 L 5.94,4.8289 C 4.38,4.5289 3,4.0489 1.74,3.4489 l -0.3,0.36 c 0.96,1.08 1.74,2.34 2.34,3.78 l 3,1.32 c -0.18,0.3 -0.3,0.48 -0.3,0.66 0,0.36 1.08,1.3801 3.24,3.0001 l 1.68,1.26 c -0.06,0.12 -0.12,0.24 -0.12,0.3 0,0.18 0.18,0.36 0.42,0.6 0,0 0.06,0.06 0.24,0.12 l 2.04,1.62 c 2.52,1.92 4.26,2.82 5.28,2.82 0.42,0 0.84,-0.3 1.32,-0.84 0.48,-0.6 0.66,-1.08 0.66,-1.5 z m -0.54,0.06 c 0,0.3 -0.18,0.72 -0.54,1.14 -0.36,0.42 -0.72,0.6 -1.02,0.6 -0.84,0 -2.7,-1.02 -5.46,-3.18 l -1.2,-0.9 c 1.44,-0.6 2.28,-1.74 2.52,-3.42 l 1.32,1.02 c 2.94,2.22 4.38,3.78 4.38,4.74 z m -6.18,-5.58 c -0.3,1.26 -0.96,2.16 -1.98,2.64 L 10.5,12.509 C 9.48,11.729 8.4,10.829 7.32,9.8089 8.1,9.2689 8.64,8.5489 9,7.5289 c 1.5,0.96 2.7,1.8 3.6,2.46 z M 8.1,8.1889 c -0.12,0.24 -0.24,0.42 -0.48,0.6 l -3.48,-1.56 c -0.06,-0.12 -0.18,-0.48 -0.42,-0.96 -0.06,-0.12 -0.36,-0.6 -0.84,-1.32 l 1.5,1.14 v 0.12 c 0,0.3 0.18,0.48 0.54,0.48 0.36,0 0.54,-0.18 0.54,-0.48 0,-0.36 -0.18,-0.54 -0.54,-0.54 -0.06,0 -0.12,0 -0.18,0.06 l -1.56,-1.2 c 0.66,0.24 1.38,0.48 2.1,0.6 0.06,0.06 0.18,0.06 0.3,0.12 z m 11.64,8.1001 c -0.24,-0.48 -0.78,-1.08 -1.62,-1.74 l -1.68,-1.26 c -0.06,-0.36 -0.3,-0.6 -0.66,-0.6 -0.48,0 -0.72,0.24 -0.72,0.72 0,0.42 0.24,0.66 0.72,0.66 0.06,0 0.18,-0.06 0.3,-0.06 l 1.2,0.9 c 0.96,0.72 1.62,1.44 1.86,2.22 z"
               style="fill:#000000;fill-opacity:1;fill-rule:nonzero;stroke:none"
               id="path508"
               inkscape:connector-curvature="0" />
            <path
               d="m 3.6,4.8289 c 0.06,0 0.3,0.24 0.6,0.42 0.42,0.3 0.54,0.42 0.78,0.42 0.3,0 0.48,0.18 0.48,0.54 0,0.36 -0.18,0.48 -0.54,0.48 -0.36,0 -0.48,-0.12 -0.54,-0.42 -0.06,-0.12 -0.18,-0.3 -0.6,-0.6 -0.36,-0.24 -0.6,-0.42 -0.6,-0.42 -0.06,0.06 0.06,0.18 0.12,0.36 0.12,0.12 0.36,0.54 0.6,0.96 l 0.3,0.66 1.74,0.78 1.68,0.78 0.24,-0.3 0.24,-0.24 -0.6,-0.72 c -0.3,-0.36 -0.84,-1.02 -1.26,-1.44 l -0.66,-0.84 -0.84,-0.18 c -0.48,-0.12 -0.96,-0.24 -1.02,-0.3 -0.12,0 -0.18,0 -0.12,0.06 z"
               style="fill:#ffffff;fill-opacity:1;fill-rule:nonzero;stroke:none"
               id="path510"
               inkscape:connector-curvature="0" />
            <path
               d="m 8.82,8.0089 c -0.24,0.54 -0.72,1.2 -1.08,1.56 l -0.36,0.24 0.18,0.18 c 0.06,0.0601 0.6,0.5401 1.08,0.9601 0.84,0.72 1.32,1.14 3.36,2.64 l 0.6,0.48 0.24,-0.18 c 0.48,-0.36 0.96,-0.9 1.26,-1.5 0.48,-0.96 0.54,-0.84 -0.96,-1.92 C 12,9.6289 9.18,7.5889 9.06,7.5889 c 0,0 -0.12,0.18 -0.24,0.42 z"
               style="fill:#ffffff;fill-opacity:1;fill-rule:nonzero;stroke:none"
               id="path512"
               inkscape:connector-curvature="0" />
            <path
               d="m 14.94,11.849 c -0.3,1.14 -0.96,2.04 -1.92,2.58 l -0.42,0.3 1.14,0.84 c 3,2.28 4.86,3.3 5.64,3.12 0.36,-0.12 1.08,-0.9 1.2,-1.38 0.3,-1.02 -1.2,-2.7 -5.1,-5.64 l -0.42,-0.36 z m 1.14,0.9 c 0.12,0 0.24,0.12 0.3,0.3 0.12,0.18 0.48,0.48 1.26,1.14 1.2,0.84 1.92,1.56 2.04,1.92 0.12,0.24 0.06,0.24 -0.18,0.66 -0.18,0.24 -0.36,0.42 -0.36,0.42 0,0 -0.12,-0.24 -0.24,-0.48 -0.36,-0.66 -0.84,-1.14 -1.92,-1.98 -0.78,-0.6 -0.96,-0.72 -1.14,-0.66 -0.12,0 -0.3,0 -0.42,-0.06 -0.3,-0.12 -0.48,-0.54 -0.36,-0.9 0.12,-0.3 0.48,-0.48 0.78,-0.42 0,0 0.12,0.06 0.24,0.06 z"
               style="fill:#ffffff;fill-opacity:1;fill-rule:nonzero;stroke:none"
               id="path514"
               inkscape:connector-curvature="0" />
          </g>
        </g>
      </g>
    </g>
  </g>
</svg>
